<?xml version="1.0" encoding="UTF-8" standalone="no"?>
<svg version="1.1" xmlns="http://www.w3.org/2000/svg" viewBox="0 0 770.89099 410.70728" width="770.89099" height="410.70728">
<path d="m 641.233,405.28129 c 10.238,0 30.438,-4.01999 30.438,-4.01999 v 8.043 h -52.602 v -2.99201 l 9.818,-1.77699 v -45.35501 l -9.818,-1.77699 v -3.08601 h 30.439 v 3.08601 l -9.818,1.77699 v 46.102"/>
<polyline points="333.616,404.535 333.616,359.227 343.762,357.449 343.762,354.316 311.733,354.316 311.733,357.449 321.879,359.227 321.879,404.535 311.733,406.313 311.733,409.305 343.762,409.305 343.762,406.313 "/>
<polyline points="449.2,377.789 475.759,404.16 483.286,406.313 483.286,409.258 465.331,409.258 438.258,380.219 469.071,354.316 480.807,354.316 480.807,357.355 473.327,359.133 "/>
<polyline points="432.414,404.535 432.414,359.18 442.653,357.402 442.653,354.316 410.578,354.316 410.578,357.402 420.772,359.18 420.772,404.535 410.578,406.313 410.578,409.305 442.653,409.305 442.653,406.313 "/>
<polyline points="596.766,404.535 596.766,359.227 606.913,357.449 606.913,354.316 574.93,354.316 574.93,357.449 585.077,359.227 585.077,404.535 574.93,406.313 574.93,409.305 606.913,409.305 606.913,406.313 "/>
<path d="M 265.957,405.28129 H 255.156 V 358.5233 h 12.531 c 14.027,0 22.209,7.90199 22.209,22.91399 10e-4,18.094 -10.612,23.844 -23.939,23.844 m 4.254,-50.918 -36.75,-0.047 v 3.133 l 10.24,1.824 v 45.309 l -10.053,1.824 v 2.89801 l 34.6,-0.047 c 21.883,0 33.898,-10.195 33.898,-28.617 10e-4,-19.077 -13.232,-26.277 -31.935,-26.277"/>
<path d="m 400.198,394.15229 c 0,-6.215 -1.59,-10.332 -7.527,-13.887 -3.975,-2.336 -10.1,-4.488 -18.096,-6.777 -6.592,-2.199 -8.557,-4.301 -8.557,-7.855 0,-4.395 3.086,-7.109 13.514,-7.109 9.117,0 14.775,2.996 17.58,4.91001 l 0.795,-7.34 c 0,0 -8.93,-2.152 -20.34,-2.152 -14.121,0 -21.273,6.078 -21.273,14.496 0,6.688 3.693,11.551 11.549,14.496 11.08,4.348 21.742,6.031 21.742,13.74599 0,6.5 -5.098,8.46101 -14.729,8.46101 -9.773,0 -17.395,-4.859 -17.395,-4.859 l -1.262,7.246 c 0,0 9.117,2.19499 20.479,2.19499 16.18,-0.043 23.52,-7.24599 23.52,-15.571"/>
<path d="m 220.508,404.5353 -19.496,-22.39801 c 10.146,-1.309 15.383,-6.684 15.383,-14.027 0,-8.60199 -6.967,-13.74599 -19.779,-13.74599 -0.889,0 -2.523,-0.047 -3.6,-0.047 h -34.693 v 3.133 l 10.1,1.73 v 45.35501 l -9.961,1.824 v 2.945 h 31.842 v -2.89801 l -10.146,-1.824 v -46.105 h 10.381 c 8.557,0 13.467,3.461 13.467,10.195 0,7.996 -4.115,12.016 -13.514,12.109 h -3.459 l 22.303,28.523 h 18.891 v -2.898"/>
<path d="m 94.731,381.94929 c 0,-9.023 2.76,-24.172 21.65,-24.172 18.842,0 21.695,15.148 21.695,24.172 0,8.98001 -2.854,24.12901 -21.695,24.12901 -18.89,0 -21.65,-15.14801 -21.65,-24.12901 m -12.951,0 c 0,18.703 17.814,28.758 34.602,28.758 16.691,0 34.553,-10.055 34.553,-28.758 0,-18.75 -17.861,-28.848 -34.553,-28.848 -16.788,10e-4 -34.602,10.098 -34.602,28.848"/>
<path d="m 8.932,353.66429 v 50.871 c -0.701,0.141 -8.932,1.777 -8.932,1.777 v 2.992 h 25.016 v -2.992 c 0,0 -9.537,-1.637 -10.285,-1.777 v -36.566 c 1.682,1.543 44.934,42.035 44.934,42.035 h 5.377 v -50.918 c 0.654,-0.141 7.855,-1.73 7.855,-1.73 v -3.039 h -23.66 v 3.039 c 0,0 9.258,1.637 10.006,1.777 v 35.207 c -1.637,-1.543 -43.109,-40.676 -43.109,-40.676"/>
<path d="m 743.397,354.31629 c 0,0 -21.789,39.043 -22.631,40.68 -0.889,-1.637 -20.619,-40.68 -20.619,-40.68 h -9.539 c 0,0 -8.885,49.516 -8.93,50.172 -0.656,0.094 -7.061,1.777 -7.061,1.777 v 2.992 h 21.975 v -2.992 c 0,0 -7.855,-1.59 -8.742,-1.73 0.139,-0.984 6.078,-34.742 6.592,-37.5 1.262,2.477 21.461,42.223 21.461,42.223 h 3.555 c 0,0 21.883,-40.023 23.238,-42.457 0.42,2.617 5.938,36.75 6.078,37.688 -0.842,0.188 -9.352,1.777 -9.352,1.777 v 2.992 h 31.469 v -2.992 c 0,0 -9.352,-1.684 -9.961,-1.777 -0.139,-0.656 -9.305,-50.172 -9.305,-50.172"/>
<path d="m 536.263,358.47729 c 9.865,0 33.15,3.086 33.15,3.086 v -7.246 H 513.96 v 3.039 l 9.49,1.73 v 45.402 l -9.49,1.824 v 2.99201 h 30.813 v -2.99201 l -9.492,-1.77699 v -21.602 h 26.184 v -4.676 H 535.28 v -19.781"/>
<path d="m 326.881,7.4732954 c 0,0 0.656,-1.313 1.824,-0.75 1.17,0.422 0.701,1.777 0.701,1.777 0,0 -0.188,0.469 -0.279,0.652 -0.094,0.188 -1.637,3.0389996 -2.854,2.5739996 -1.262,-0.516 0.328,-3.7889996 0.328,-3.7889996 m -29.036,-0.839 c 0,0.84 -0.514,1.918 -1.496,2.242 -0.467,0.188 -5.236,1.3089996 -5.236,1.3089996 l -0.047,-2.4299996 c 0,-0.887 0.328,-1.121 1.543,-1.121 1.962,0 5.236,0 5.236,0 M 439.147,275.3913 c 5.143,-14.07401 8.791,-31.188 8.791,-51.57401 0,-2.38299 -0.047,-4.67599 -0.234,-6.918 20.479,3.086 31.329,7.387 35.489,9.39801 0.047,1.074 0.094,2.148 0.094,3.26999 0,18.28501 -5.471,35.352 -14.869,49.66 -4.208,-0.75 -14.73,-2.387 -29.271,-3.836 m -26.137,42.55 c 6.639,-6.688 16.504,-19.078 24.08,-37.313 12.764,1.168 22.583,2.617 27.915,3.504 -12.626,16.69601 -30.909,28.94601 -51.995,33.80901 m -9.492,1.68 c -3.086,0.422 -6.219,0.60899 -9.398,0.70299 v -41.754 c 13.934,0 26.697,0.656 37.732,1.637 -11.035,25.391 -26.512,38.059 -28.334,39.414 m -9.399,-106.371 c 19.871,0.047 35.91,1.262 48.533,2.945 0.141,2.523 0.281,5.004 0.281,7.621 0,20.527 -3.74,37.406 -8.977,51.105 -11.504,-0.934 -25.109,-1.73 -39.838,-1.777 v -59.894 z m 0,-56.625 c 9.818,0.141 18.422,0.75 25.949,1.73 10.055,12.438 19.451,29.133 22.117,52.184 -12.719,-1.59 -28.521,-2.758 -48.066,-2.805 z m 0,-17.766 c 2.572,0 5.143,0.188 7.668,0.375 4.021,3.785 8.697,8.227 13.561,13.512 -6.406,-0.609 -13.42,-1.02699 -21.229,-1.168 z m 11.221,-21.929 c -0.326,-7.762 -0.84,-19.637 -0.887,-29.691 0,-2.711 -0.047,-4.863 -0.141,-6.35899 -0.047,-1.96101 0.748,-1.684 2.432,-0.559 4.066,2.66399 9.023,5.65599 12.063,8.03899 3.273,2.62101 3.787,3.32 1.965,16.789 -0.889,7.012 -3.789,20.105 -5.285,21.227 -2.104,1.449 -5.563,4.066 -5.563,4.066 -1.498,-0.27699 -4.115,-0.746 -7.809,-1.074 2.198,-2.294 3.46,-6.829 3.225,-12.438 m 36.893,36.75 c 2.479,1.59 4.957,3.367 7.248,5.285 -6.313,-1.871 -15.244,-3.973 -26.934,-5.426 -4.113,-4.953 -8.322,-9.305 -12.109,-12.949 11.502,2.336 22.256,6.777 31.795,13.09 m 40.539,66.30401 c -5.986,-2.48 -17.113,-6.125 -35.491,-8.793 -2.43,-22.254 -10.848,-39.18 -20.246,-51.945 19.826,3.086 30.208,7.715 31.842,8.461 13.095,14.074 21.79,32.219 23.895,52.277 m -93.61,-68.453 h -0.373 c -8.043,0 -15.197,0.281 -21.602,0.84 3.6,-3.414 7.059,-6.172 9.912,-8.414 2.244,-1.73 4.113,-3.18 5.518,-4.582 2.15,-0.234 4.348,-0.422 6.545,-0.516 z m 0,56.203 c -20.385,0.09 -36.611,1.355 -49.375,3.086 2.572,-25.859 12.25,-42.082 21.977,-52.93 7.668,-0.844 16.551,-1.355 27.025,-1.355 0.094,0 0.232,0.043 0.373,0.043 z m 0,65.411 c -14.869,0.141 -28.662,0.938 -40.258,1.871 -5.75,-13.69901 -9.865,-30.29701 -9.865,-49.89101 0,-2.992 0.047,-5.844 0.188,-8.60199 12.811,-1.82401 29.129,-3.18001 49.936,-3.27301 v 59.895 z m 0,47.08499 c -2.57,-0.094 -5.002,-0.281 -7.434,-0.60899 -5.424,-3.691 -19.92,-17.02 -30.533,-39.32 11.129,-0.938 24.08,-1.59 37.967,-1.73 z m -69.433,-36.562 c 5.189,-0.75 14.4,-1.96499 26.23,-2.945 8.043,17.625 18.609,30.109 26.23,37.26601 -21.32,-4.911 -39.79,-17.301 -52.46,-34.32101 M 301.774,229.5663 c 0,-1.121 0.047,-2.24201 0.047,-3.316 4.021,-2.012 13.84,-5.941 32.449,-9.027 -0.141,2.574 -0.234,5.191 -0.234,7.902 0,19.641 3.975,36.426 9.633,50.359 -13.373,1.262 -23.191,2.664 -27.354,3.22699 -9.258,-14.12099 -14.541,-31.047 -14.541,-49.14499 m 26.043,-63.589 c 4.115,-1.867 12.438,-5 26.465,-7.105 -9.07,11.457 -17.393,27.961 -19.639,52.695 -16.598,2.617 -26.744,5.938 -32.355,8.371 2.197,-20.903 11.548,-39.7 25.529,-53.961 m 45.027,-24.965 c -3.975,3.086 -8.697,7.012 -13.512,12.109 -8.885,1.027 -15.898,2.477 -21.322,4.02 10.147,-7.668 21.977,-13.325 34.834,-16.129 m 59.943,-3.602 c 3.6,-2.059 13.42,-16.414 18.516,-25.109 14.542,-24.828 17.161,-44.934 8.885,-60.316 -5.145,-9.680005 -13.887,-19.219005 -52.977,-26.137005 -3.646,-0.609 -5.189,-2.434 -8.838,-4.395 -4.301,-2.668 -7.434,-3.555 -12.717,-4.586 -16.646,-3.223 -32.029,-5.891 -51.105,-11.2189996 -0.469,-0.516 -0.516,-2.246 -4.49,-3.461 -2.244,-0.609 -4.768,-0.141 -6.125,0.281 -1.73,-0.75 -3.74,-1.77699999 -4.629,-2.10499999 -1.215,-0.375 -7.527,-0.563 -13.934,-0.047 -6.453,0.609 -13.045,2.66399999 -14.447,3.22699999 -1.355,0.563 -2.105,2.523 -2.105,2.523 0,0 -14.119,2.527 -20.059,6.0819996 0,0.09 0.047,0.184 0.047,0.23 l 3.039,0.188 0.469,3.695 -1.871,1.262 c 0.188,0.656 0.375,1.168 0.469,1.355 1.309,2.711 2.01,4.488 5.516,5.473 4.537,1.309 13.42,2.383 17.16,3.645 10.521,3.742 41.1,21.277005 64.9,37.172005 1.59,0.984 2.992,2.574 4.16,4.582 11.363,19.547 13.795,32.266 15.758,46.477 0.375,2.949 1.355,5.332 -0.281,7.902 -1.168,1.824 -3.973,5.098 -5.236,6.781 -2.525,0.51599 -7.34,1.72999 -8.697,2.10499 2.994,-5.66 7.014,-11.223 7.014,-11.223 -0.561,-6.688 -2.104,-12.109 -4.02,-19.172 -1.17,-4.77 -4.676,-13.746 -6.127,-15.711 -1.635,-2.336 -5.703,-5.281 -9.959,-8.039 8.838,35.629 9.68,44.371 9.352,47.129 l -9.164,11.832 c -26.885,12.391 -58.166,40.91 -59.242,91.734 0,55.363 45.074,100.438 100.482,100.438 55.361,0 100.436,-45.074 100.436,-100.438 -1.265,-69.62 -60.18,-92.155 -60.18,-92.155"/>
</svg>
